<mxfile host="Electron" agent="Mozilla/5.0 (Windows NT 10.0; Win64; x64) AppleWebKit/537.36 (KHTML, like Gecko) draw.io/28.0.6 Chrome/138.0.7204.100 Electron/37.2.3 Safari/537.36" version="28.0.6">
  <diagram name="Page-1" id="S5rZk0lo1eGGX9WYq3Ea">
    <mxGraphModel dx="1497" dy="1397" grid="0" gridSize="10" guides="1" tooltips="1" connect="0" arrows="1" fold="1" page="0" pageScale="1" pageWidth="850" pageHeight="1100" background="none" math="0" shadow="1">
      <root>
        <mxCell id="0" />
        <mxCell id="1" parent="0" />
        <mxCell id="RYgZhdgakqxeQmth26HK-33" style="edgeStyle=orthogonalEdgeStyle;rounded=0;orthogonalLoop=1;jettySize=auto;html=1;" parent="1" source="RYgZhdgakqxeQmth26HK-9" target="RYgZhdgakqxeQmth26HK-28" edge="1">
          <mxGeometry relative="1" as="geometry" />
        </mxCell>
        <mxCell id="RYgZhdgakqxeQmth26HK-35" style="edgeStyle=orthogonalEdgeStyle;rounded=0;orthogonalLoop=1;jettySize=auto;html=1;exitX=0.25;exitY=0;exitDx=0;exitDy=0;entryX=1;entryY=0.5;entryDx=0;entryDy=0;" parent="1" source="RYgZhdgakqxeQmth26HK-9" target="RYgZhdgakqxeQmth26HK-30" edge="1">
          <mxGeometry relative="1" as="geometry">
            <mxPoint x="320" y="-370" as="targetPoint" />
            <Array as="points">
              <mxPoint x="355" y="-360" />
            </Array>
          </mxGeometry>
        </mxCell>
        <mxCell id="RYgZhdgakqxeQmth26HK-90" value="PK" style="edgeStyle=orthogonalEdgeStyle;rounded=0;orthogonalLoop=1;jettySize=auto;html=1;" parent="1" source="RYgZhdgakqxeQmth26HK-9" target="RYgZhdgakqxeQmth26HK-55" edge="1">
          <mxGeometry relative="1" as="geometry" />
        </mxCell>
        <mxCell id="RYgZhdgakqxeQmth26HK-91" style="edgeStyle=orthogonalEdgeStyle;rounded=0;orthogonalLoop=1;jettySize=auto;html=1;exitX=0.75;exitY=1;exitDx=0;exitDy=0;entryX=0;entryY=0.5;entryDx=0;entryDy=0;" parent="1" source="RYgZhdgakqxeQmth26HK-9" target="RYgZhdgakqxeQmth26HK-26" edge="1">
          <mxGeometry relative="1" as="geometry" />
        </mxCell>
        <mxCell id="RYgZhdgakqxeQmth26HK-92" style="edgeStyle=orthogonalEdgeStyle;rounded=0;orthogonalLoop=1;jettySize=auto;html=1;exitX=0.75;exitY=0;exitDx=0;exitDy=0;entryX=0;entryY=0.5;entryDx=0;entryDy=0;" parent="1" source="RYgZhdgakqxeQmth26HK-9" target="RYgZhdgakqxeQmth26HK-25" edge="1">
          <mxGeometry relative="1" as="geometry">
            <mxPoint x="470" y="-350" as="targetPoint" />
            <Array as="points">
              <mxPoint x="425" y="-350" />
            </Array>
          </mxGeometry>
        </mxCell>
        <mxCell id="RYgZhdgakqxeQmth26HK-93" value="" style="edgeStyle=orthogonalEdgeStyle;rounded=0;orthogonalLoop=1;jettySize=auto;html=1;" parent="1" source="RYgZhdgakqxeQmth26HK-9" target="RYgZhdgakqxeQmth26HK-27" edge="1">
          <mxGeometry relative="1" as="geometry" />
        </mxCell>
        <mxCell id="RYgZhdgakqxeQmth26HK-94" style="edgeStyle=orthogonalEdgeStyle;rounded=0;orthogonalLoop=1;jettySize=auto;html=1;exitX=0.25;exitY=1;exitDx=0;exitDy=0;entryX=1;entryY=0.5;entryDx=0;entryDy=0;" parent="1" source="RYgZhdgakqxeQmth26HK-9" target="RYgZhdgakqxeQmth26HK-29" edge="1">
          <mxGeometry relative="1" as="geometry" />
        </mxCell>
        <mxCell id="RYgZhdgakqxeQmth26HK-9" value="Customer" style="whiteSpace=wrap;html=1;align=center;fillColor=#ffe6cc;strokeColor=#d79b00;textShadow=1;fontStyle=1;fontSize=18;fontFamily=Times New Roman;labelBorderColor=none;labelBackgroundColor=none;convertToSvg=0;rounded=0;" parent="1" vertex="1">
          <mxGeometry x="315" y="-290" width="140" height="50" as="geometry" />
        </mxCell>
        <mxCell id="ujrjHBd2gkF27PmxNJKZ-27" value="PK" style="edgeStyle=orthogonalEdgeStyle;rounded=0;orthogonalLoop=1;jettySize=auto;html=1;exitX=0;exitY=0.25;exitDx=0;exitDy=0;entryX=0.5;entryY=1;entryDx=0;entryDy=0;" parent="1" source="RYgZhdgakqxeQmth26HK-13" target="ujrjHBd2gkF27PmxNJKZ-24" edge="1">
          <mxGeometry relative="1" as="geometry" />
        </mxCell>
        <mxCell id="ujrjHBd2gkF27PmxNJKZ-28" style="edgeStyle=orthogonalEdgeStyle;rounded=0;orthogonalLoop=1;jettySize=auto;html=1;exitX=0;exitY=0.75;exitDx=0;exitDy=0;entryX=1;entryY=0.5;entryDx=0;entryDy=0;" parent="1" source="RYgZhdgakqxeQmth26HK-13" target="RYgZhdgakqxeQmth26HK-157" edge="1">
          <mxGeometry relative="1" as="geometry" />
        </mxCell>
        <mxCell id="ujrjHBd2gkF27PmxNJKZ-30" style="edgeStyle=orthogonalEdgeStyle;rounded=0;orthogonalLoop=1;jettySize=auto;html=1;exitX=0.5;exitY=1;exitDx=0;exitDy=0;entryX=0;entryY=0.5;entryDx=0;entryDy=0;" parent="1" source="RYgZhdgakqxeQmth26HK-13" target="RYgZhdgakqxeQmth26HK-155" edge="1">
          <mxGeometry relative="1" as="geometry" />
        </mxCell>
        <mxCell id="ujrjHBd2gkF27PmxNJKZ-31" style="edgeStyle=orthogonalEdgeStyle;rounded=0;orthogonalLoop=1;jettySize=auto;html=1;exitX=1;exitY=0.75;exitDx=0;exitDy=0;entryX=0;entryY=0.5;entryDx=0;entryDy=0;" parent="1" source="RYgZhdgakqxeQmth26HK-13" target="ujrjHBd2gkF27PmxNJKZ-22" edge="1">
          <mxGeometry relative="1" as="geometry" />
        </mxCell>
        <mxCell id="ujrjHBd2gkF27PmxNJKZ-33" style="edgeStyle=orthogonalEdgeStyle;rounded=0;orthogonalLoop=1;jettySize=auto;html=1;exitX=0.5;exitY=0;exitDx=0;exitDy=0;entryX=0.5;entryY=1;entryDx=0;entryDy=0;" parent="1" source="RYgZhdgakqxeQmth26HK-13" target="ujrjHBd2gkF27PmxNJKZ-25" edge="1">
          <mxGeometry relative="1" as="geometry" />
        </mxCell>
        <mxCell id="RYgZhdgakqxeQmth26HK-13" value="&lt;div style=&quot;line-height: 160%;&quot;&gt;&lt;b&gt;&lt;font style=&quot;font-size: 18px;&quot; face=&quot;Times New Roman&quot;&gt;Restaurant&lt;/font&gt;&lt;/b&gt;&lt;/div&gt;" style="whiteSpace=wrap;html=1;align=center;labelBackgroundColor=none;fillColor=#ffe6cc;strokeColor=#d79b00;rounded=0;textShadow=1;labelBorderColor=none;convertToSvg=0;arcSize=21;" parent="1" vertex="1">
          <mxGeometry x="765" y="-345" width="130" height="60" as="geometry" />
        </mxCell>
        <mxCell id="RYgZhdgakqxeQmth26HK-112" style="edgeStyle=orthogonalEdgeStyle;rounded=0;orthogonalLoop=1;jettySize=auto;html=1;exitX=0.75;exitY=0;exitDx=0;exitDy=0;entryX=0;entryY=0.5;entryDx=0;entryDy=0;" parent="1" source="RYgZhdgakqxeQmth26HK-16" target="RYgZhdgakqxeQmth26HK-108" edge="1">
          <mxGeometry relative="1" as="geometry" />
        </mxCell>
        <mxCell id="RYgZhdgakqxeQmth26HK-113" value="" style="edgeStyle=orthogonalEdgeStyle;rounded=0;orthogonalLoop=1;jettySize=auto;html=1;" parent="1" source="RYgZhdgakqxeQmth26HK-16" target="RYgZhdgakqxeQmth26HK-106" edge="1">
          <mxGeometry relative="1" as="geometry" />
        </mxCell>
        <mxCell id="RYgZhdgakqxeQmth26HK-115" value="" style="edgeStyle=orthogonalEdgeStyle;rounded=0;orthogonalLoop=1;jettySize=auto;html=1;" parent="1" source="RYgZhdgakqxeQmth26HK-16" target="RYgZhdgakqxeQmth26HK-105" edge="1">
          <mxGeometry relative="1" as="geometry" />
        </mxCell>
        <mxCell id="RYgZhdgakqxeQmth26HK-116" style="edgeStyle=orthogonalEdgeStyle;rounded=0;orthogonalLoop=1;jettySize=auto;html=1;" parent="1" source="RYgZhdgakqxeQmth26HK-16" target="RYgZhdgakqxeQmth26HK-107" edge="1">
          <mxGeometry relative="1" as="geometry" />
        </mxCell>
        <mxCell id="RYgZhdgakqxeQmth26HK-117" value="FK" style="edgeStyle=orthogonalEdgeStyle;rounded=0;orthogonalLoop=1;jettySize=auto;html=1;exitX=0.25;exitY=1;exitDx=0;exitDy=0;entryX=0.5;entryY=0;entryDx=0;entryDy=0;" parent="1" source="RYgZhdgakqxeQmth26HK-16" target="RYgZhdgakqxeQmth26HK-103" edge="1">
          <mxGeometry relative="1" as="geometry" />
        </mxCell>
        <mxCell id="RYgZhdgakqxeQmth26HK-119" value="PK" style="edgeStyle=orthogonalEdgeStyle;rounded=0;orthogonalLoop=1;jettySize=auto;html=1;exitX=0.25;exitY=0;exitDx=0;exitDy=0;entryX=0.5;entryY=1;entryDx=0;entryDy=0;" parent="1" source="RYgZhdgakqxeQmth26HK-16" target="RYgZhdgakqxeQmth26HK-104" edge="1">
          <mxGeometry relative="1" as="geometry" />
        </mxCell>
        <mxCell id="RYgZhdgakqxeQmth26HK-16" value="&lt;font style=&quot;font-size: 18px;&quot;&gt;FoodItem&lt;/font&gt;" style="align=center;hachureGap=4;fontFamily=Times New Roman;fontStyle=3;textShadow=1;html=1;labelBackgroundColor=none;fillColor=#ffe6cc;strokeColor=#d79b00;rounded=0;" parent="1" vertex="1">
          <mxGeometry x="230" y="102.5" width="135" height="40" as="geometry" />
        </mxCell>
        <mxCell id="RYgZhdgakqxeQmth26HK-66" value="FK" style="edgeStyle=orthogonalEdgeStyle;rounded=0;orthogonalLoop=1;jettySize=auto;html=1;textShadow=1;labelBorderColor=default;" parent="1" source="RYgZhdgakqxeQmth26HK-17" target="RYgZhdgakqxeQmth26HK-63" edge="1">
          <mxGeometry relative="1" as="geometry" />
        </mxCell>
        <mxCell id="RYgZhdgakqxeQmth26HK-95" value="PK" style="edgeStyle=orthogonalEdgeStyle;rounded=0;orthogonalLoop=1;jettySize=auto;html=1;exitX=0.25;exitY=0;exitDx=0;exitDy=0;" parent="1" source="RYgZhdgakqxeQmth26HK-17" target="RYgZhdgakqxeQmth26HK-62" edge="1">
          <mxGeometry relative="1" as="geometry" />
        </mxCell>
        <mxCell id="RYgZhdgakqxeQmth26HK-96" value="FK" style="edgeStyle=orthogonalEdgeStyle;rounded=0;orthogonalLoop=1;jettySize=auto;html=1;exitX=0.25;exitY=1;exitDx=0;exitDy=0;entryX=1;entryY=0.5;entryDx=0;entryDy=0;" parent="1" source="RYgZhdgakqxeQmth26HK-17" target="RYgZhdgakqxeQmth26HK-61" edge="1">
          <mxGeometry relative="1" as="geometry" />
        </mxCell>
        <mxCell id="RYgZhdgakqxeQmth26HK-98" value="" style="edgeStyle=orthogonalEdgeStyle;rounded=0;orthogonalLoop=1;jettySize=auto;html=1;" parent="1" source="RYgZhdgakqxeQmth26HK-17" target="RYgZhdgakqxeQmth26HK-51" edge="1">
          <mxGeometry relative="1" as="geometry">
            <Array as="points">
              <mxPoint x="-103" y="157.5" />
              <mxPoint x="-102" y="157.5" />
            </Array>
          </mxGeometry>
        </mxCell>
        <mxCell id="RYgZhdgakqxeQmth26HK-99" style="edgeStyle=orthogonalEdgeStyle;rounded=0;orthogonalLoop=1;jettySize=auto;html=1;exitX=0.75;exitY=1;exitDx=0;exitDy=0;entryX=0;entryY=0.5;entryDx=0;entryDy=0;" parent="1" source="RYgZhdgakqxeQmth26HK-17" target="RYgZhdgakqxeQmth26HK-72" edge="1">
          <mxGeometry relative="1" as="geometry" />
        </mxCell>
        <mxCell id="RYgZhdgakqxeQmth26HK-100" value="" style="edgeStyle=orthogonalEdgeStyle;rounded=0;orthogonalLoop=1;jettySize=auto;html=1;fillColor=#ffe6cc;strokeColor=#d79b00;" parent="1" source="RYgZhdgakqxeQmth26HK-17" target="RYgZhdgakqxeQmth26HK-70" edge="1">
          <mxGeometry relative="1" as="geometry" />
        </mxCell>
        <mxCell id="RYgZhdgakqxeQmth26HK-101" style="edgeStyle=orthogonalEdgeStyle;rounded=0;orthogonalLoop=1;jettySize=auto;html=1;exitX=0.75;exitY=0;exitDx=0;exitDy=0;entryX=0;entryY=0.5;entryDx=0;entryDy=0;" parent="1" source="RYgZhdgakqxeQmth26HK-17" target="RYgZhdgakqxeQmth26HK-71" edge="1">
          <mxGeometry relative="1" as="geometry" />
        </mxCell>
        <mxCell id="RYgZhdgakqxeQmth26HK-17" value="Order" style="whiteSpace=wrap;html=1;align=center;hachureGap=4;strokeColor=#d79b00;fontFamily=Times New Roman;fillColor=#ffe6cc;fontStyle=3;shadow=1;fontSize=19;rounded=0;" parent="1" vertex="1">
          <mxGeometry x="-152.5" y="87.5" width="98.75" height="40" as="geometry" />
        </mxCell>
        <mxCell id="RYgZhdgakqxeQmth26HK-81" value="" style="edgeStyle=orthogonalEdgeStyle;rounded=0;orthogonalLoop=1;jettySize=auto;html=1;" parent="1" source="RYgZhdgakqxeQmth26HK-18" target="RYgZhdgakqxeQmth26HK-31" edge="1">
          <mxGeometry relative="1" as="geometry" />
        </mxCell>
        <mxCell id="RYgZhdgakqxeQmth26HK-85" value="(PK, FK)" style="edgeStyle=orthogonalEdgeStyle;rounded=0;orthogonalLoop=1;jettySize=auto;html=1;exitX=0.25;exitY=1;exitDx=0;exitDy=0;entryX=1;entryY=0.5;entryDx=0;entryDy=0;labelBorderColor=none;textShadow=0;" parent="1" source="RYgZhdgakqxeQmth26HK-18" target="RYgZhdgakqxeQmth26HK-57" edge="1">
          <mxGeometry relative="1" as="geometry" />
        </mxCell>
        <mxCell id="RYgZhdgakqxeQmth26HK-86" value="(PK, FK)" style="edgeStyle=orthogonalEdgeStyle;rounded=0;orthogonalLoop=1;jettySize=auto;html=1;entryX=1;entryY=0.5;entryDx=0;entryDy=0;shadow=0;sketch=1;curveFitting=1;jiggle=2;" parent="1" source="RYgZhdgakqxeQmth26HK-18" target="RYgZhdgakqxeQmth26HK-58" edge="1">
          <mxGeometry relative="1" as="geometry" />
        </mxCell>
        <mxCell id="ujrjHBd2gkF27PmxNJKZ-34" style="edgeStyle=orthogonalEdgeStyle;rounded=0;orthogonalLoop=1;jettySize=auto;html=1;entryX=0.5;entryY=0;entryDx=0;entryDy=0;" parent="1" source="RYgZhdgakqxeQmth26HK-18" target="RYgZhdgakqxeQmth26HK-50" edge="1">
          <mxGeometry relative="1" as="geometry">
            <Array as="points">
              <mxPoint x="500" y="405" />
            </Array>
          </mxGeometry>
        </mxCell>
        <mxCell id="RYgZhdgakqxeQmth26HK-18" value="&lt;div&gt;&lt;span style=&quot;font-family: &amp;quot;Times New Roman&amp;quot;;&quot;&gt;OrderItem&lt;/span&gt;&lt;/div&gt;" style="whiteSpace=wrap;html=1;align=center;hachureGap=4;strokeColor=#d79b00;fontFamily=Architects Daughter;fontSource=https%3A%2F%2Ffonts.googleapis.com%2Fcss%3Ffamily%3DArchitects%2BDaughter;fillColor=#ffe6cc;fontStyle=1;textShadow=1;labelBorderColor=none;labelBackgroundColor=none;convertToSvg=0;rounded=0;glass=0;shadow=0;fontSize=18;" parent="1" vertex="1">
          <mxGeometry x="320" y="380" width="130" height="50" as="geometry" />
        </mxCell>
        <mxCell id="ujrjHBd2gkF27PmxNJKZ-13" value="PK" style="edgeStyle=orthogonalEdgeStyle;rounded=0;orthogonalLoop=1;jettySize=auto;html=1;exitX=0;exitY=0.75;exitDx=0;exitDy=0;entryX=0.5;entryY=0;entryDx=0;entryDy=0;" parent="1" source="RYgZhdgakqxeQmth26HK-19" target="ujrjHBd2gkF27PmxNJKZ-12" edge="1">
          <mxGeometry relative="1" as="geometry" />
        </mxCell>
        <mxCell id="ujrjHBd2gkF27PmxNJKZ-16" style="edgeStyle=orthogonalEdgeStyle;rounded=0;orthogonalLoop=1;jettySize=auto;html=1;exitX=0.25;exitY=1;exitDx=0;exitDy=0;entryX=0.5;entryY=0;entryDx=0;entryDy=0;" parent="1" source="RYgZhdgakqxeQmth26HK-19" target="ujrjHBd2gkF27PmxNJKZ-14" edge="1">
          <mxGeometry relative="1" as="geometry">
            <mxPoint x="-150" y="-110" as="targetPoint" />
          </mxGeometry>
        </mxCell>
        <mxCell id="ujrjHBd2gkF27PmxNJKZ-18" style="edgeStyle=orthogonalEdgeStyle;rounded=0;orthogonalLoop=1;jettySize=auto;html=1;exitX=0.5;exitY=1;exitDx=0;exitDy=0;entryX=0.5;entryY=0;entryDx=0;entryDy=0;" parent="1" source="RYgZhdgakqxeQmth26HK-19" target="ujrjHBd2gkF27PmxNJKZ-17" edge="1">
          <mxGeometry relative="1" as="geometry">
            <mxPoint x="5" y="-120" as="targetPoint" />
          </mxGeometry>
        </mxCell>
        <mxCell id="ujrjHBd2gkF27PmxNJKZ-20" style="edgeStyle=orthogonalEdgeStyle;rounded=0;orthogonalLoop=1;jettySize=auto;html=1;exitX=1;exitY=0.5;exitDx=0;exitDy=0;" parent="1" source="RYgZhdgakqxeQmth26HK-19" target="ujrjHBd2gkF27PmxNJKZ-19" edge="1">
          <mxGeometry relative="1" as="geometry" />
        </mxCell>
        <mxCell id="ujrjHBd2gkF27PmxNJKZ-21" style="edgeStyle=orthogonalEdgeStyle;rounded=0;orthogonalLoop=1;jettySize=auto;html=1;exitX=0.5;exitY=0;exitDx=0;exitDy=0;entryX=0.5;entryY=1;entryDx=0;entryDy=0;" parent="1" source="RYgZhdgakqxeQmth26HK-19" target="RYgZhdgakqxeQmth26HK-156" edge="1">
          <mxGeometry relative="1" as="geometry" />
        </mxCell>
        <mxCell id="RYgZhdgakqxeQmth26HK-19" value="&lt;strong data-end=&quot;4417&quot; data-start=&quot;4400&quot;&gt;&lt;font style=&quot;font-size: 18px;&quot;&gt;DeliveryAgent&lt;/font&gt;&lt;/strong&gt;" style="whiteSpace=wrap;html=1;align=center;hachureGap=4;strokeColor=#d79b00;fontFamily=Times New Roman;fillColor=#ffe6cc;textShadow=1;rounded=0;" parent="1" vertex="1">
          <mxGeometry x="-50" y="-220" width="140" height="50" as="geometry" />
        </mxCell>
        <mxCell id="RYgZhdgakqxeQmth26HK-127" value="" style="edgeStyle=orthogonalEdgeStyle;rounded=0;orthogonalLoop=1;jettySize=auto;html=1;" parent="1" source="RYgZhdgakqxeQmth26HK-20" target="RYgZhdgakqxeQmth26HK-126" edge="1">
          <mxGeometry relative="1" as="geometry" />
        </mxCell>
        <mxCell id="RYgZhdgakqxeQmth26HK-128" value="" style="edgeStyle=orthogonalEdgeStyle;rounded=0;orthogonalLoop=1;jettySize=auto;html=1;" parent="1" source="RYgZhdgakqxeQmth26HK-20" target="RYgZhdgakqxeQmth26HK-123" edge="1">
          <mxGeometry relative="1" as="geometry" />
        </mxCell>
        <mxCell id="RYgZhdgakqxeQmth26HK-129" style="edgeStyle=orthogonalEdgeStyle;rounded=0;orthogonalLoop=1;jettySize=auto;html=1;exitX=0;exitY=0.25;exitDx=0;exitDy=0;entryX=0.5;entryY=1;entryDx=0;entryDy=0;" parent="1" source="RYgZhdgakqxeQmth26HK-20" target="RYgZhdgakqxeQmth26HK-125" edge="1">
          <mxGeometry relative="1" as="geometry" />
        </mxCell>
        <mxCell id="RYgZhdgakqxeQmth26HK-131" value="(FK, UNIQUE)" style="edgeStyle=orthogonalEdgeStyle;rounded=0;orthogonalLoop=1;jettySize=auto;html=1;exitX=1;exitY=1;exitDx=0;exitDy=0;" parent="1" source="RYgZhdgakqxeQmth26HK-20" target="RYgZhdgakqxeQmth26HK-122" edge="1">
          <mxGeometry relative="1" as="geometry" />
        </mxCell>
        <mxCell id="RYgZhdgakqxeQmth26HK-133" value="PK" style="edgeStyle=orthogonalEdgeStyle;rounded=0;orthogonalLoop=1;jettySize=auto;html=1;exitX=1;exitY=0;exitDx=0;exitDy=0;entryX=0.5;entryY=1;entryDx=0;entryDy=0;" parent="1" source="RYgZhdgakqxeQmth26HK-20" target="RYgZhdgakqxeQmth26HK-121" edge="1">
          <mxGeometry relative="1" as="geometry" />
        </mxCell>
        <mxCell id="RYgZhdgakqxeQmth26HK-20" value="&lt;font style=&quot;font-size: 18px;&quot;&gt;Payment&lt;/font&gt;" style="whiteSpace=wrap;html=1;align=center;hachureGap=4;strokeColor=#d79b00;fontFamily=Times New Roman;fillColor=#ffe6cc;fontStyle=1;textShadow=1;rounded=0;" parent="1" vertex="1">
          <mxGeometry x="-240" y="420" width="120" height="60" as="geometry" />
        </mxCell>
        <mxCell id="RYgZhdgakqxeQmth26HK-143" style="edgeStyle=orthogonalEdgeStyle;rounded=0;orthogonalLoop=1;jettySize=auto;html=1;exitX=0.5;exitY=0;exitDx=0;exitDy=0;entryX=0.5;entryY=1;entryDx=0;entryDy=0;" parent="1" source="RYgZhdgakqxeQmth26HK-21" target="RYgZhdgakqxeQmth26HK-137" edge="1">
          <mxGeometry relative="1" as="geometry" />
        </mxCell>
        <mxCell id="RYgZhdgakqxeQmth26HK-146" value="(FK, UNIQUE)" style="edgeStyle=orthogonalEdgeStyle;rounded=0;orthogonalLoop=1;jettySize=auto;html=1;exitX=0.25;exitY=1;exitDx=0;exitDy=0;entryX=1;entryY=0.5;entryDx=0;entryDy=0;" parent="1" source="RYgZhdgakqxeQmth26HK-21" target="RYgZhdgakqxeQmth26HK-134" edge="1">
          <mxGeometry relative="1" as="geometry" />
        </mxCell>
        <mxCell id="RYgZhdgakqxeQmth26HK-147" value="PK" style="edgeStyle=orthogonalEdgeStyle;rounded=0;orthogonalLoop=1;jettySize=auto;html=1;exitX=0.25;exitY=0;exitDx=0;exitDy=0;entryX=1;entryY=0.5;entryDx=0;entryDy=0;" parent="1" source="RYgZhdgakqxeQmth26HK-21" target="RYgZhdgakqxeQmth26HK-135" edge="1">
          <mxGeometry relative="1" as="geometry" />
        </mxCell>
        <mxCell id="RYgZhdgakqxeQmth26HK-150" value="FK" style="edgeStyle=orthogonalEdgeStyle;rounded=0;orthogonalLoop=1;jettySize=auto;html=1;" parent="1" source="RYgZhdgakqxeQmth26HK-21" target="RYgZhdgakqxeQmth26HK-136" edge="1">
          <mxGeometry relative="1" as="geometry" />
        </mxCell>
        <mxCell id="RYgZhdgakqxeQmth26HK-151" style="edgeStyle=orthogonalEdgeStyle;rounded=0;orthogonalLoop=1;jettySize=auto;html=1;exitX=0.75;exitY=1;exitDx=0;exitDy=0;entryX=0;entryY=0.5;entryDx=0;entryDy=0;" parent="1" source="RYgZhdgakqxeQmth26HK-21" target="RYgZhdgakqxeQmth26HK-139" edge="1">
          <mxGeometry relative="1" as="geometry" />
        </mxCell>
        <mxCell id="RYgZhdgakqxeQmth26HK-152" style="edgeStyle=orthogonalEdgeStyle;rounded=0;orthogonalLoop=1;jettySize=auto;html=1;exitX=0.75;exitY=0;exitDx=0;exitDy=0;fillColor=#dae8fc;strokeColor=#6c8ebf;" parent="1" source="RYgZhdgakqxeQmth26HK-21" target="RYgZhdgakqxeQmth26HK-138" edge="1">
          <mxGeometry relative="1" as="geometry" />
        </mxCell>
        <mxCell id="RYgZhdgakqxeQmth26HK-21" value="&lt;font style=&quot;font-size: 18px;&quot;&gt;Review&lt;/font&gt;" style="whiteSpace=wrap;html=1;align=center;hachureGap=4;strokeColor=#d79b00;fontFamily=Times New Roman;fillColor=#ffe6cc;fontStyle=1;textShadow=1;rounded=0;" parent="1" vertex="1">
          <mxGeometry x="670" y="-10" width="135" height="50" as="geometry" />
        </mxCell>
        <mxCell id="ujrjHBd2gkF27PmxNJKZ-44" style="edgeStyle=orthogonalEdgeStyle;rounded=0;orthogonalLoop=1;jettySize=auto;html=1;exitX=0;exitY=0.25;exitDx=0;exitDy=0;entryX=0.5;entryY=1;entryDx=0;entryDy=0;" parent="1" source="RYgZhdgakqxeQmth26HK-22" target="ujrjHBd2gkF27PmxNJKZ-43" edge="1">
          <mxGeometry relative="1" as="geometry" />
        </mxCell>
        <mxCell id="ujrjHBd2gkF27PmxNJKZ-45" value="PK" style="edgeStyle=orthogonalEdgeStyle;rounded=0;orthogonalLoop=1;jettySize=auto;html=1;exitX=0.25;exitY=1;exitDx=0;exitDy=0;entryX=1;entryY=0.5;entryDx=0;entryDy=0;" parent="1" source="RYgZhdgakqxeQmth26HK-22" target="ujrjHBd2gkF27PmxNJKZ-37" edge="1">
          <mxGeometry relative="1" as="geometry" />
        </mxCell>
        <mxCell id="ujrjHBd2gkF27PmxNJKZ-46" style="edgeStyle=orthogonalEdgeStyle;rounded=0;orthogonalLoop=1;jettySize=auto;html=1;exitX=0.75;exitY=1;exitDx=0;exitDy=0;entryX=0.5;entryY=0;entryDx=0;entryDy=0;" parent="1" source="RYgZhdgakqxeQmth26HK-22" target="ujrjHBd2gkF27PmxNJKZ-39" edge="1">
          <mxGeometry relative="1" as="geometry" />
        </mxCell>
        <mxCell id="ujrjHBd2gkF27PmxNJKZ-47" style="edgeStyle=orthogonalEdgeStyle;rounded=0;orthogonalLoop=1;jettySize=auto;html=1;exitX=1;exitY=0.75;exitDx=0;exitDy=0;" parent="1" source="RYgZhdgakqxeQmth26HK-22" target="ujrjHBd2gkF27PmxNJKZ-40" edge="1">
          <mxGeometry relative="1" as="geometry" />
        </mxCell>
        <mxCell id="ujrjHBd2gkF27PmxNJKZ-48" style="edgeStyle=orthogonalEdgeStyle;rounded=0;orthogonalLoop=1;jettySize=auto;html=1;exitX=0.75;exitY=0;exitDx=0;exitDy=0;entryX=0;entryY=0.5;entryDx=0;entryDy=0;" parent="1" source="RYgZhdgakqxeQmth26HK-22" target="ujrjHBd2gkF27PmxNJKZ-41" edge="1">
          <mxGeometry relative="1" as="geometry" />
        </mxCell>
        <mxCell id="ujrjHBd2gkF27PmxNJKZ-49" style="edgeStyle=orthogonalEdgeStyle;rounded=0;orthogonalLoop=1;jettySize=auto;html=1;exitX=0.25;exitY=0;exitDx=0;exitDy=0;entryX=0.5;entryY=1;entryDx=0;entryDy=0;" parent="1" source="RYgZhdgakqxeQmth26HK-22" target="ujrjHBd2gkF27PmxNJKZ-42" edge="1">
          <mxGeometry relative="1" as="geometry" />
        </mxCell>
        <mxCell id="RYgZhdgakqxeQmth26HK-22" value="&lt;font style=&quot;font-size: 18px;&quot;&gt;Offer&lt;/font&gt;" style="whiteSpace=wrap;html=1;align=center;hachureGap=4;strokeColor=#d79b00;fontFamily=Times New Roman;fillColor=#ffe6cc;textShadow=1;fontStyle=1;rounded=0;" parent="1" vertex="1">
          <mxGeometry x="1127.5" y="82.5" width="100" height="40" as="geometry" />
        </mxCell>
        <mxCell id="ujrjHBd2gkF27PmxNJKZ-2" value="PK" style="edgeStyle=orthogonalEdgeStyle;rounded=0;orthogonalLoop=1;jettySize=auto;html=1;exitX=0.25;exitY=0;exitDx=0;exitDy=0;entryX=0.5;entryY=1;entryDx=0;entryDy=0;" parent="1" source="RYgZhdgakqxeQmth26HK-23" target="RYgZhdgakqxeQmth26HK-154" edge="1">
          <mxGeometry relative="1" as="geometry">
            <mxPoint x="620" y="283" as="targetPoint" />
          </mxGeometry>
        </mxCell>
        <mxCell id="ujrjHBd2gkF27PmxNJKZ-5" value="FK" style="edgeStyle=orthogonalEdgeStyle;rounded=0;orthogonalLoop=1;jettySize=auto;html=1;exitX=0.25;exitY=1;exitDx=0;exitDy=0;entryX=1;entryY=0.5;entryDx=0;entryDy=0;" parent="1" source="RYgZhdgakqxeQmth26HK-23" target="ujrjHBd2gkF27PmxNJKZ-4" edge="1">
          <mxGeometry relative="1" as="geometry" />
        </mxCell>
        <mxCell id="ujrjHBd2gkF27PmxNJKZ-8" value="(FK, nullable" style="edgeStyle=orthogonalEdgeStyle;rounded=0;orthogonalLoop=1;jettySize=auto;html=1;entryX=1;entryY=0.5;entryDx=0;entryDy=0;" parent="1" source="RYgZhdgakqxeQmth26HK-23" target="ujrjHBd2gkF27PmxNJKZ-6" edge="1">
          <mxGeometry relative="1" as="geometry" />
        </mxCell>
        <mxCell id="ujrjHBd2gkF27PmxNJKZ-10" value="(FK, nullable)" style="edgeStyle=orthogonalEdgeStyle;rounded=0;orthogonalLoop=1;jettySize=auto;html=1;exitX=0.75;exitY=1;exitDx=0;exitDy=0;" parent="1" source="RYgZhdgakqxeQmth26HK-23" target="ujrjHBd2gkF27PmxNJKZ-9" edge="1">
          <mxGeometry x="0.3643" relative="1" as="geometry">
            <mxPoint as="offset" />
          </mxGeometry>
        </mxCell>
        <mxCell id="ujrjHBd2gkF27PmxNJKZ-11" style="edgeStyle=orthogonalEdgeStyle;rounded=0;orthogonalLoop=1;jettySize=auto;html=1;exitX=0.75;exitY=0;exitDx=0;exitDy=0;" parent="1" source="RYgZhdgakqxeQmth26HK-23" target="RYgZhdgakqxeQmth26HK-158" edge="1">
          <mxGeometry relative="1" as="geometry" />
        </mxCell>
        <mxCell id="RYgZhdgakqxeQmth26HK-23" value="&lt;font style=&quot;font-size: 18px;&quot;&gt;OfferApplicability&lt;/font&gt;" style="whiteSpace=wrap;html=1;align=center;hachureGap=4;strokeColor=#d79b00;fontFamily=Times New Roman;fillColor=#ffe6cc;fontStyle=1;textShadow=1;rounded=0;" parent="1" vertex="1">
          <mxGeometry x="680" y="303" width="150" height="47" as="geometry" />
        </mxCell>
        <mxCell id="RYgZhdgakqxeQmth26HK-25" value="Email(UNIQUE)" style="ellipse;whiteSpace=wrap;html=1;align=center;fillColor=#dae8fc;strokeColor=#6c8ebf;rounded=0;" parent="1" vertex="1">
          <mxGeometry x="490" y="-370" width="100" height="40" as="geometry" />
        </mxCell>
        <mxCell id="RYgZhdgakqxeQmth26HK-26" value="Phone" style="ellipse;whiteSpace=wrap;html=1;align=center;fillColor=#dae8fc;strokeColor=#6c8ebf;shadow=0;rounded=0;" parent="1" vertex="1">
          <mxGeometry x="465" y="-220" width="100" height="40" as="geometry" />
        </mxCell>
        <mxCell id="RYgZhdgakqxeQmth26HK-27" value="Name" style="ellipse;whiteSpace=wrap;html=1;align=center;fillColor=#dae8fc;strokeColor=#6c8ebf;rounded=0;" parent="1" vertex="1">
          <mxGeometry x="340" y="-410" width="100" height="40" as="geometry" />
        </mxCell>
        <mxCell id="RYgZhdgakqxeQmth26HK-28" value="PasswordHash" style="ellipse;whiteSpace=wrap;html=1;align=center;fillColor=#dae8fc;strokeColor=#6c8ebf;rounded=0;" parent="1" vertex="1">
          <mxGeometry x="340" y="-190" width="100" height="40" as="geometry" />
        </mxCell>
        <mxCell id="RYgZhdgakqxeQmth26HK-29" value="DateJoined" style="ellipse;whiteSpace=wrap;html=1;align=center;fillColor=#dae8fc;strokeColor=#6c8ebf;rounded=0;" parent="1" vertex="1">
          <mxGeometry x="200" y="-230" width="100" height="40" as="geometry" />
        </mxCell>
        <mxCell id="RYgZhdgakqxeQmth26HK-30" value="Address" style="ellipse;whiteSpace=wrap;html=1;align=center;fillColor=#dae8fc;strokeColor=#6c8ebf;rounded=0;" parent="1" vertex="1">
          <mxGeometry x="200" y="-380" width="100" height="40" as="geometry" />
        </mxCell>
        <mxCell id="RYgZhdgakqxeQmth26HK-31" value="Quantity" style="ellipse;whiteSpace=wrap;html=1;align=center;fillColor=#dae8fc;strokeColor=#6c8ebf;rounded=0;" parent="1" vertex="1">
          <mxGeometry x="335" y="500" width="100" height="40" as="geometry" />
        </mxCell>
        <mxCell id="RYgZhdgakqxeQmth26HK-50" value="ItemPrice" style="ellipse;whiteSpace=wrap;html=1;align=center;fillColor=#dae8fc;strokeColor=#6c8ebf;rounded=0;" parent="1" vertex="1">
          <mxGeometry x="450" y="450" width="100" height="40" as="geometry" />
        </mxCell>
        <mxCell id="RYgZhdgakqxeQmth26HK-51" value="OrderDate" style="ellipse;whiteSpace=wrap;html=1;align=center;fillColor=#dae8fc;strokeColor=#6c8ebf;rounded=0;" parent="1" vertex="1">
          <mxGeometry x="-153.75" y="192.5" width="100" height="40" as="geometry" />
        </mxCell>
        <mxCell id="RYgZhdgakqxeQmth26HK-55" value="CustomerID" style="ellipse;whiteSpace=wrap;html=1;align=center;fontStyle=4;fillColor=#dae8fc;strokeColor=#6c8ebf;rounded=0;" parent="1" vertex="1">
          <mxGeometry x="140" y="-305" width="100" height="40" as="geometry" />
        </mxCell>
        <mxCell id="RYgZhdgakqxeQmth26HK-57" value="FoodID" style="ellipse;whiteSpace=wrap;html=1;align=center;fontStyle=4;fillColor=#dae8fc;strokeColor=#6c8ebf;rounded=0;" parent="1" vertex="1">
          <mxGeometry x="180" y="460" width="100" height="40" as="geometry" />
        </mxCell>
        <mxCell id="RYgZhdgakqxeQmth26HK-58" value="OderID" style="ellipse;whiteSpace=wrap;html=1;align=center;fontStyle=4;fillColor=#dae8fc;strokeColor=#6c8ebf;rounded=0;" parent="1" vertex="1">
          <mxGeometry x="140" y="385" width="100" height="40" as="geometry" />
        </mxCell>
        <mxCell id="RYgZhdgakqxeQmth26HK-61" value="CustomerID" style="ellipse;whiteSpace=wrap;html=1;align=center;fontStyle=4;fillColor=#dae8fc;strokeColor=#6c8ebf;rounded=0;" parent="1" vertex="1">
          <mxGeometry x="-280" y="157.5" width="100" height="40" as="geometry" />
        </mxCell>
        <mxCell id="RYgZhdgakqxeQmth26HK-62" value="OrderID" style="ellipse;whiteSpace=wrap;html=1;align=center;fontStyle=4;fillColor=#dae8fc;strokeColor=#6c8ebf;rounded=0;" parent="1" vertex="1">
          <mxGeometry x="-240" y="7.5" width="100" height="40" as="geometry" />
        </mxCell>
        <mxCell id="RYgZhdgakqxeQmth26HK-63" value="DerliveryAgentID" style="ellipse;whiteSpace=wrap;html=1;align=center;fontStyle=4;fillColor=#dae8fc;strokeColor=#6c8ebf;rounded=0;" parent="1" vertex="1">
          <mxGeometry x="-300" y="87.5" width="100" height="40" as="geometry" />
        </mxCell>
        <mxCell id="RYgZhdgakqxeQmth26HK-70" value="TotalAmount" style="ellipse;whiteSpace=wrap;html=1;align=center;fillColor=#dae8fc;strokeColor=#6c8ebf;rounded=0;" parent="1" vertex="1">
          <mxGeometry x="-10" y="87.5" width="100" height="40" as="geometry" />
        </mxCell>
        <mxCell id="RYgZhdgakqxeQmth26HK-71" value="DeliveryAddress" style="ellipse;whiteSpace=wrap;html=1;align=center;fillColor=#dae8fc;strokeColor=#6c8ebf;rounded=0;" parent="1" vertex="1">
          <mxGeometry x="-30" y="27.5" width="100" height="40" as="geometry" />
        </mxCell>
        <mxCell id="RYgZhdgakqxeQmth26HK-72" value="OrderStatus" style="ellipse;whiteSpace=wrap;html=1;align=center;fillColor=#dae8fc;strokeColor=#6c8ebf;rounded=0;" parent="1" vertex="1">
          <mxGeometry x="-20" y="152.5" width="100" height="40" as="geometry" />
        </mxCell>
        <mxCell id="RYgZhdgakqxeQmth26HK-103" value="RestausrantID" style="ellipse;whiteSpace=wrap;html=1;align=center;fontStyle=4;fillColor=#dae8fc;strokeColor=#6c8ebf;rounded=0;" parent="1" vertex="1">
          <mxGeometry x="110" y="182.5" width="100" height="40" as="geometry" />
        </mxCell>
        <mxCell id="RYgZhdgakqxeQmth26HK-104" value="FoodID" style="ellipse;whiteSpace=wrap;html=1;align=center;fontStyle=4;fillColor=#dae8fc;strokeColor=#6c8ebf;rounded=0;" parent="1" vertex="1">
          <mxGeometry x="110" y="2.5" width="100" height="40" as="geometry" />
        </mxCell>
        <mxCell id="RYgZhdgakqxeQmth26HK-105" value="Name" style="ellipse;whiteSpace=wrap;html=1;align=center;fillColor=#dae8fc;strokeColor=#6c8ebf;rounded=0;" parent="1" vertex="1">
          <mxGeometry x="247.5" y="192.5" width="100" height="40" as="geometry" />
        </mxCell>
        <mxCell id="RYgZhdgakqxeQmth26HK-106" value="Availability" style="ellipse;whiteSpace=wrap;html=1;align=center;fillColor=#dae8fc;strokeColor=#6c8ebf;rounded=0;" parent="1" vertex="1">
          <mxGeometry x="247.5" y="-27.5" width="100" height="40" as="geometry" />
        </mxCell>
        <mxCell id="RYgZhdgakqxeQmth26HK-107" value="Price" style="ellipse;whiteSpace=wrap;html=1;align=center;fillColor=#dae8fc;strokeColor=#6c8ebf;rounded=0;" parent="1" vertex="1">
          <mxGeometry x="380" y="172.5" width="100" height="40" as="geometry" />
        </mxCell>
        <mxCell id="RYgZhdgakqxeQmth26HK-108" value="Category" style="ellipse;whiteSpace=wrap;html=1;align=center;fillColor=#dae8fc;strokeColor=#6c8ebf;rounded=0;" parent="1" vertex="1">
          <mxGeometry x="390" y="32.5" width="100" height="40" as="geometry" />
        </mxCell>
        <mxCell id="RYgZhdgakqxeQmth26HK-111" style="edgeStyle=orthogonalEdgeStyle;rounded=0;orthogonalLoop=1;jettySize=auto;html=1;exitX=0.5;exitY=1;exitDx=0;exitDy=0;" parent="1" source="RYgZhdgakqxeQmth26HK-108" target="RYgZhdgakqxeQmth26HK-108" edge="1">
          <mxGeometry relative="1" as="geometry" />
        </mxCell>
        <mxCell id="RYgZhdgakqxeQmth26HK-121" value="PaymentID" style="ellipse;whiteSpace=wrap;html=1;align=center;fontStyle=4;fillColor=#dae8fc;strokeColor=#6c8ebf;rounded=0;" parent="1" vertex="1">
          <mxGeometry x="-90" y="340" width="100" height="40" as="geometry" />
        </mxCell>
        <mxCell id="RYgZhdgakqxeQmth26HK-122" value="OrderID" style="ellipse;whiteSpace=wrap;html=1;align=center;fontStyle=4;fillColor=#dae8fc;strokeColor=#6c8ebf;rounded=0;" parent="1" vertex="1">
          <mxGeometry x="-90" y="520" width="100" height="40" as="geometry" />
        </mxCell>
        <mxCell id="RYgZhdgakqxeQmth26HK-123" value="PaymentMethod" style="ellipse;whiteSpace=wrap;html=1;align=center;fillColor=#dae8fc;strokeColor=#6c8ebf;rounded=0;" parent="1" vertex="1">
          <mxGeometry x="-220" y="550" width="100" height="40" as="geometry" />
        </mxCell>
        <mxCell id="RYgZhdgakqxeQmth26HK-124" value="PaymentDate" style="ellipse;whiteSpace=wrap;html=1;align=center;fillColor=#dae8fc;strokeColor=#6c8ebf;rounded=0;" parent="1" vertex="1">
          <mxGeometry x="-350" y="500" width="100" height="40" as="geometry" />
        </mxCell>
        <mxCell id="RYgZhdgakqxeQmth26HK-125" value="Amount" style="ellipse;whiteSpace=wrap;html=1;align=center;fillColor=#dae8fc;strokeColor=#6c8ebf;rounded=0;" parent="1" vertex="1">
          <mxGeometry x="-340" y="360" width="100" height="40" as="geometry" />
        </mxCell>
        <mxCell id="RYgZhdgakqxeQmth26HK-126" value="PaymentStatus" style="ellipse;whiteSpace=wrap;html=1;align=center;fillColor=#dae8fc;strokeColor=#6c8ebf;rounded=0;" parent="1" vertex="1">
          <mxGeometry x="-220" y="320" width="100" height="40" as="geometry" />
        </mxCell>
        <mxCell id="RYgZhdgakqxeQmth26HK-130" style="edgeStyle=orthogonalEdgeStyle;rounded=0;orthogonalLoop=1;jettySize=auto;html=1;exitX=0;exitY=0.75;exitDx=0;exitDy=0;entryX=0.59;entryY=-0.05;entryDx=0;entryDy=0;entryPerimeter=0;" parent="1" source="RYgZhdgakqxeQmth26HK-20" target="RYgZhdgakqxeQmth26HK-124" edge="1">
          <mxGeometry relative="1" as="geometry" />
        </mxCell>
        <mxCell id="RYgZhdgakqxeQmth26HK-134" value="CustomerID" style="ellipse;whiteSpace=wrap;html=1;align=center;fontStyle=4;fillColor=#dae8fc;strokeColor=#6c8ebf;rounded=0;" parent="1" vertex="1">
          <mxGeometry x="530" y="70" width="100" height="40" as="geometry" />
        </mxCell>
        <mxCell id="RYgZhdgakqxeQmth26HK-135" value="ReviewID" style="ellipse;whiteSpace=wrap;html=1;align=center;fontStyle=4;fillColor=#dae8fc;strokeColor=#6c8ebf;rounded=0;" parent="1" vertex="1">
          <mxGeometry x="530" y="-70" width="100" height="40" as="geometry" />
        </mxCell>
        <mxCell id="RYgZhdgakqxeQmth26HK-136" value="RestaurantID" style="ellipse;whiteSpace=wrap;html=1;align=center;fontStyle=4;fillColor=#dae8fc;strokeColor=#6c8ebf;rounded=0;" parent="1" vertex="1">
          <mxGeometry x="687.5" y="110" width="100" height="40" as="geometry" />
        </mxCell>
        <mxCell id="RYgZhdgakqxeQmth26HK-137" value="Rating(1-5)" style="ellipse;whiteSpace=wrap;html=1;align=center;fillColor=#dae8fc;strokeColor=#6c8ebf;rounded=0;" parent="1" vertex="1">
          <mxGeometry x="687.5" y="-110" width="100" height="40" as="geometry" />
        </mxCell>
        <mxCell id="RYgZhdgakqxeQmth26HK-138" value="Comments" style="ellipse;whiteSpace=wrap;html=1;align=center;fillColor=#dae8fc;strokeColor=#6c8ebf;rounded=0;" parent="1" vertex="1">
          <mxGeometry x="830" y="-90" width="100" height="40" as="geometry" />
        </mxCell>
        <mxCell id="RYgZhdgakqxeQmth26HK-139" value="ReviewDate" style="ellipse;whiteSpace=wrap;html=1;align=center;fillColor=#dae8fc;strokeColor=#6c8ebf;rounded=0;" parent="1" vertex="1">
          <mxGeometry x="830" y="60" width="100" height="40" as="geometry" />
        </mxCell>
        <mxCell id="RYgZhdgakqxeQmth26HK-154" value="OfferApplicabilityID" style="ellipse;whiteSpace=wrap;html=1;align=center;fontStyle=4;fillColor=#dae8fc;strokeColor=#6c8ebf;rounded=0;" parent="1" vertex="1">
          <mxGeometry x="610" y="218" width="120" height="50" as="geometry" />
        </mxCell>
        <mxCell id="RYgZhdgakqxeQmth26HK-155" value="Phone" style="ellipse;whiteSpace=wrap;html=1;align=center;fillColor=#dae8fc;strokeColor=#6c8ebf;rounded=0;" parent="1" vertex="1">
          <mxGeometry x="870" y="-260" width="100" height="40" as="geometry" />
        </mxCell>
        <mxCell id="RYgZhdgakqxeQmth26HK-156" value="Status" style="ellipse;whiteSpace=wrap;html=1;align=center;fillColor=#dae8fc;strokeColor=#6c8ebf;rounded=0;" parent="1" vertex="1">
          <mxGeometry x="10" y="-305" width="100" height="40" as="geometry" />
        </mxCell>
        <mxCell id="RYgZhdgakqxeQmth26HK-157" value="Name" style="ellipse;whiteSpace=wrap;html=1;align=center;fillColor=#dae8fc;strokeColor=#6c8ebf;rounded=0;" parent="1" vertex="1">
          <mxGeometry x="610" y="-310" width="100" height="40" as="geometry" />
        </mxCell>
        <mxCell id="RYgZhdgakqxeQmth26HK-158" value="Scope" style="ellipse;whiteSpace=wrap;html=1;align=center;fillColor=#dae8fc;strokeColor=#6c8ebf;rounded=0;" parent="1" vertex="1">
          <mxGeometry x="825" y="218" width="100" height="40" as="geometry" />
        </mxCell>
        <mxCell id="RYgZhdgakqxeQmth26HK-159" value="Address" style="ellipse;whiteSpace=wrap;html=1;align=center;fillColor=#dae8fc;strokeColor=#6c8ebf;rounded=0;" parent="1" vertex="1">
          <mxGeometry x="730" y="-220" width="100" height="40" as="geometry" />
        </mxCell>
        <mxCell id="ujrjHBd2gkF27PmxNJKZ-4" value="OfferID" style="ellipse;whiteSpace=wrap;html=1;align=center;fontStyle=4;fillColor=#dae8fc;strokeColor=#6c8ebf;rounded=0;" parent="1" vertex="1">
          <mxGeometry x="540" y="313" width="100" height="40" as="geometry" />
        </mxCell>
        <mxCell id="ujrjHBd2gkF27PmxNJKZ-6" value="FoodID" style="ellipse;whiteSpace=wrap;html=1;align=center;fontStyle=4;fillColor=#dae8fc;strokeColor=#6c8ebf;rounded=0;" parent="1" vertex="1">
          <mxGeometry x="665" y="390" width="100" height="40" as="geometry" />
        </mxCell>
        <mxCell id="ujrjHBd2gkF27PmxNJKZ-9" value="RestaurantID" style="ellipse;whiteSpace=wrap;html=1;align=center;fontStyle=4;fillColor=#dae8fc;strokeColor=#6c8ebf;rounded=0;" parent="1" vertex="1">
          <mxGeometry x="870" y="353" width="100" height="40" as="geometry" />
        </mxCell>
        <mxCell id="ujrjHBd2gkF27PmxNJKZ-12" value="DeliveryAgentID" style="ellipse;whiteSpace=wrap;html=1;align=center;fontStyle=4;fillColor=#dae8fc;strokeColor=#6c8ebf;rounded=0;" parent="1" vertex="1">
          <mxGeometry x="-190" y="-250" width="100" height="40" as="geometry" />
        </mxCell>
        <mxCell id="ujrjHBd2gkF27PmxNJKZ-14" value="Name" style="ellipse;whiteSpace=wrap;html=1;align=center;fillColor=#dae8fc;strokeColor=#6c8ebf;rounded=0;" parent="1" vertex="1">
          <mxGeometry x="-190" y="-160" width="100" height="40" as="geometry" />
        </mxCell>
        <mxCell id="ujrjHBd2gkF27PmxNJKZ-17" value="Phone" style="ellipse;whiteSpace=wrap;html=1;align=center;fillColor=#dae8fc;strokeColor=#6c8ebf;rounded=0;" parent="1" vertex="1">
          <mxGeometry x="-10" y="-110" width="100" height="40" as="geometry" />
        </mxCell>
        <mxCell id="ujrjHBd2gkF27PmxNJKZ-19" value="VehicleType" style="ellipse;whiteSpace=wrap;html=1;align=center;fillColor=#dae8fc;strokeColor=#6c8ebf;rounded=0;" parent="1" vertex="1">
          <mxGeometry x="100" y="-150" width="100" height="40" as="geometry" />
        </mxCell>
        <mxCell id="ujrjHBd2gkF27PmxNJKZ-22" value="CuisineType" style="ellipse;whiteSpace=wrap;html=1;align=center;fillColor=#dae8fc;strokeColor=#6c8ebf;rounded=0;" parent="1" vertex="1">
          <mxGeometry x="982.5" y="-370" width="100" height="40" as="geometry" />
        </mxCell>
        <mxCell id="ujrjHBd2gkF27PmxNJKZ-23" value="OpeningHours" style="ellipse;whiteSpace=wrap;html=1;align=center;fillColor=#dae8fc;strokeColor=#6c8ebf;rounded=0;" parent="1" vertex="1">
          <mxGeometry x="870" y="-445" width="100" height="40" as="geometry" />
        </mxCell>
        <mxCell id="ujrjHBd2gkF27PmxNJKZ-24" value="RestaurantID" style="ellipse;whiteSpace=wrap;html=1;align=center;fontStyle=4;fillColor=#dae8fc;strokeColor=#6c8ebf;rounded=0;" parent="1" vertex="1">
          <mxGeometry x="640" y="-420" width="100" height="40" as="geometry" />
        </mxCell>
        <mxCell id="ujrjHBd2gkF27PmxNJKZ-25" value="AvgRating" style="ellipse;whiteSpace=wrap;html=1;align=center;fillColor=#dae8fc;strokeColor=#6c8ebf;rounded=0;" parent="1" vertex="1">
          <mxGeometry x="750" y="-450" width="100" height="40" as="geometry" />
        </mxCell>
        <mxCell id="ujrjHBd2gkF27PmxNJKZ-29" style="edgeStyle=orthogonalEdgeStyle;rounded=0;orthogonalLoop=1;jettySize=auto;html=1;exitX=0.25;exitY=1;exitDx=0;exitDy=0;entryX=0.4;entryY=0;entryDx=0;entryDy=0;entryPerimeter=0;" parent="1" source="RYgZhdgakqxeQmth26HK-13" target="RYgZhdgakqxeQmth26HK-159" edge="1">
          <mxGeometry relative="1" as="geometry" />
        </mxCell>
        <mxCell id="ujrjHBd2gkF27PmxNJKZ-32" style="edgeStyle=orthogonalEdgeStyle;rounded=0;orthogonalLoop=1;jettySize=auto;html=1;exitX=0.75;exitY=0;exitDx=0;exitDy=0;entryX=0.6;entryY=1;entryDx=0;entryDy=0;entryPerimeter=0;" parent="1" source="RYgZhdgakqxeQmth26HK-13" target="ujrjHBd2gkF27PmxNJKZ-23" edge="1">
          <mxGeometry relative="1" as="geometry" />
        </mxCell>
        <mxCell id="ujrjHBd2gkF27PmxNJKZ-37" value="OfferID" style="ellipse;whiteSpace=wrap;html=1;align=center;fontStyle=4;fillColor=#dae8fc;strokeColor=#6c8ebf;rounded=0;" parent="1" vertex="1">
          <mxGeometry x="982.5" y="137.5" width="100" height="40" as="geometry" />
        </mxCell>
        <mxCell id="ujrjHBd2gkF27PmxNJKZ-39" value="OfferTitle" style="ellipse;whiteSpace=wrap;html=1;align=center;fillColor=#dae8fc;strokeColor=#6c8ebf;rounded=0;" parent="1" vertex="1">
          <mxGeometry x="1147.5" y="182.5" width="100" height="40" as="geometry" />
        </mxCell>
        <mxCell id="ujrjHBd2gkF27PmxNJKZ-40" value="DiscountPercent" style="ellipse;whiteSpace=wrap;html=1;align=center;fillColor=#dae8fc;strokeColor=#6c8ebf;rounded=0;" parent="1" vertex="1">
          <mxGeometry x="1272.5" y="112.5" width="100" height="40" as="geometry" />
        </mxCell>
        <mxCell id="ujrjHBd2gkF27PmxNJKZ-41" value="StartDate" style="ellipse;whiteSpace=wrap;html=1;align=center;fillColor=#dae8fc;strokeColor=#6c8ebf;rounded=0;" parent="1" vertex="1">
          <mxGeometry x="1242.5" y="22.5" width="100" height="40" as="geometry" />
        </mxCell>
        <mxCell id="ujrjHBd2gkF27PmxNJKZ-42" value="EndDate" style="ellipse;whiteSpace=wrap;html=1;align=center;fillColor=#dae8fc;strokeColor=#6c8ebf;rounded=0;" parent="1" vertex="1">
          <mxGeometry x="1102.5" y="2.5" width="100" height="40" as="geometry" />
        </mxCell>
        <mxCell id="ujrjHBd2gkF27PmxNJKZ-43" value="Terms" style="ellipse;whiteSpace=wrap;html=1;align=center;fillColor=#dae8fc;strokeColor=#6c8ebf;rounded=0;" parent="1" vertex="1">
          <mxGeometry x="982.5" y="42.5" width="100" height="40" as="geometry" />
        </mxCell>
        <mxCell id="ujrjHBd2gkF27PmxNJKZ-51" value="" style="curved=1;startArrow=ERmandOne;startSize=10;;endArrow=ERmandOne;endSize=10;;entryX=0.25;entryY=0;rounded=0;entryDx=0;entryDy=0;exitX=0.504;exitY=0.983;exitDx=0;exitDy=0;exitPerimeter=0;" parent="1" edge="1" source="e3GAquj90kr0tm5V7kAf-8">
          <mxGeometry relative="1" as="geometry">
            <Array as="points">
              <mxPoint x="-260" y="370" />
            </Array>
            <mxPoint x="-210" y="310" as="sourcePoint" />
            <mxPoint x="-198.74999999999977" y="420" as="targetPoint" />
          </mxGeometry>
        </mxCell>
        <mxCell id="ujrjHBd2gkF27PmxNJKZ-52" value="" style="curved=1;startArrow=ERmandOne;startSize=10;;endArrow=ERoneToMany;endSize=10;;exitX=0.993;exitY=0.504;entryX=0;entryY=0;rounded=0;exitDx=0;exitDy=0;entryDx=0;entryDy=0;exitPerimeter=0;" parent="1" source="e3GAquj90kr0tm5V7kAf-6" target="RYgZhdgakqxeQmth26HK-18" edge="1">
          <mxGeometry x="0.0948" y="32" relative="1" as="geometry">
            <Array as="points" />
            <mxPoint x="-10" y="212" as="sourcePoint" />
            <mxPoint x="101" y="385" as="targetPoint" />
            <mxPoint y="-1" as="offset" />
          </mxGeometry>
        </mxCell>
        <mxCell id="ujrjHBd2gkF27PmxNJKZ-53" value="" style="curved=1;startArrow=ERmandOne;startSize=10;;endArrow=ERoneToMany;endSize=10;;exitX=0.556;exitY=0.931;entryX=0.5;entryY=0;rounded=0;exitDx=0;exitDy=0;entryDx=0;entryDy=0;exitPerimeter=0;" parent="1" source="e3GAquj90kr0tm5V7kAf-23" target="RYgZhdgakqxeQmth26HK-18" edge="1">
          <mxGeometry relative="1" as="geometry">
            <Array as="points" />
            <mxPoint x="425" y="290" as="sourcePoint" />
            <mxPoint x="390" y="436" as="targetPoint" />
          </mxGeometry>
        </mxCell>
        <mxCell id="ujrjHBd2gkF27PmxNJKZ-54" value="" style="curved=1;startArrow=ERmandOne;startSize=10;;endArrow=ERzeroToMany;endSize=10;;exitX=0.493;exitY=1.086;entryX=0;entryY=0;rounded=0;exitDx=0;exitDy=0;entryDx=0;entryDy=0;exitPerimeter=0;" parent="1" target="RYgZhdgakqxeQmth26HK-23" edge="1" source="e3GAquj90kr0tm5V7kAf-25">
          <mxGeometry x="0.0412" y="-12" relative="1" as="geometry">
            <Array as="points">
              <mxPoint x="580" y="280" />
            </Array>
            <mxPoint x="365" y="105" as="sourcePoint" />
            <mxPoint x="680" y="305.5" as="targetPoint" />
            <mxPoint as="offset" />
          </mxGeometry>
        </mxCell>
        <mxCell id="ujrjHBd2gkF27PmxNJKZ-55" value="" style="curved=1;startArrow=ERmandOne;startSize=10;;endArrow=ERzeroToMany;endSize=10;;exitX=0.016;exitY=0.532;entryX=1;entryY=0;rounded=0;entryDx=0;entryDy=0;exitDx=0;exitDy=0;exitPerimeter=0;" parent="1" source="e3GAquj90kr0tm5V7kAf-10" target="RYgZhdgakqxeQmth26HK-23" edge="1">
          <mxGeometry x="0.1337" y="-57" relative="1" as="geometry">
            <Array as="points">
              <mxPoint x="940" y="290" />
            </Array>
            <mxPoint x="1100" y="260" as="sourcePoint" />
            <mxPoint x="1146" y="404" as="targetPoint" />
            <mxPoint as="offset" />
          </mxGeometry>
        </mxCell>
        <mxCell id="ujrjHBd2gkF27PmxNJKZ-57" value="" style="curved=1;startArrow=ERmandOne;startSize=10;;endArrow=ERzeroToMany;endSize=10;;entryX=1;entryY=0.5;rounded=0;entryDx=0;entryDy=0;exitX=0.485;exitY=0.965;exitDx=0;exitDy=0;exitPerimeter=0;" parent="1" source="e3GAquj90kr0tm5V7kAf-17" target="RYgZhdgakqxeQmth26HK-21" edge="1">
          <mxGeometry relative="1" as="geometry">
            <Array as="points">
              <mxPoint x="910" y="40" />
            </Array>
            <mxPoint x="860" y="-140" as="sourcePoint" />
            <mxPoint x="980" y="55" as="targetPoint" />
          </mxGeometry>
        </mxCell>
        <mxCell id="ujrjHBd2gkF27PmxNJKZ-58" value="" style="curved=1;startArrow=ERmandOne;startSize=10;;endArrow=ERzeroToMany;endSize=10;;exitX=0.507;exitY=0.984;entryX=0.59;entryY=0.113;rounded=0;entryDx=0;entryDy=0;entryPerimeter=0;exitDx=0;exitDy=0;exitPerimeter=0;" parent="1" source="e3GAquj90kr0tm5V7kAf-19" target="RYgZhdgakqxeQmth26HK-16" edge="1">
          <mxGeometry relative="1" as="geometry">
            <Array as="points">
              <mxPoint x="298" y="20" />
            </Array>
            <mxPoint x="1045" y="-230" as="sourcePoint" />
            <mxPoint x="640" as="targetPoint" />
          </mxGeometry>
        </mxCell>
        <mxCell id="ujrjHBd2gkF27PmxNJKZ-93" value="" style="curved=1;startArrow=ERmandOne;startSize=10;;endArrow=ERzeroToMany;endSize=10;;exitX=0.426;exitY=1.007;entryX=0.5;entryY=0;rounded=0;exitDx=0;exitDy=0;exitPerimeter=0;entryDx=0;entryDy=0;" parent="1" source="e3GAquj90kr0tm5V7kAf-4" target="RYgZhdgakqxeQmth26HK-17" edge="1">
          <mxGeometry x="-0.3023" y="-440" relative="1" as="geometry">
            <Array as="points">
              <mxPoint x="-110" y="20" />
            </Array>
            <mxPoint x="-60" y="-30" as="sourcePoint" />
            <mxPoint x="-51" y="115" as="targetPoint" />
            <mxPoint x="18" y="-175" as="offset" />
          </mxGeometry>
        </mxCell>
        <mxCell id="ujrjHBd2gkF27PmxNJKZ-94" value="" style="curved=1;startArrow=ERmandOne;startSize=10;;endArrow=ERzeroToMany;endSize=10;;exitX=0.493;exitY=1.021;entryX=1;entryY=0;rounded=0;entryDx=0;entryDy=0;exitDx=0;exitDy=0;exitPerimeter=0;" parent="1" source="e3GAquj90kr0tm5V7kAf-1" target="RYgZhdgakqxeQmth26HK-17" edge="1">
          <mxGeometry x="-0.1603" y="-192" relative="1" as="geometry">
            <Array as="points">
              <mxPoint x="100" y="-20" />
              <mxPoint x="-70" y="-20" />
              <mxPoint x="200" y="60" />
            </Array>
            <mxPoint x="273" y="-100" as="sourcePoint" />
            <mxPoint x="170" y="51" as="targetPoint" />
            <mxPoint x="-135" y="-214" as="offset" />
          </mxGeometry>
        </mxCell>
        <mxCell id="ujrjHBd2gkF27PmxNJKZ-95" value="" style="curved=1;startArrow=ERmandOne;startSize=10;;endArrow=ERzeroToMany;endSize=10;;exitX=0.512;exitY=0.925;entryX=-0.015;entryY=0.499;rounded=0;exitDx=0;exitDy=0;entryDx=0;entryDy=0;exitPerimeter=0;entryPerimeter=0;" parent="1" source="e3GAquj90kr0tm5V7kAf-21" target="RYgZhdgakqxeQmth26HK-21" edge="1">
          <mxGeometry x="0.0146" y="-36" relative="1" as="geometry">
            <Array as="points">
              <mxPoint x="380" y="-20" />
            </Array>
            <mxPoint x="410" y="-90" as="sourcePoint" />
            <mxPoint x="630" y="122" as="targetPoint" />
            <mxPoint x="-15" y="-66" as="offset" />
          </mxGeometry>
        </mxCell>
        <mxCell id="ujrjHBd2gkF27PmxNJKZ-96" value="" style="curved=1;startArrow=ERmandOne;startSize=10;;endArrow=ERzeroToMany;endSize=10;;exitX=0.519;exitY=0.97;entryX=0.5;entryY=0;rounded=0;exitDx=0;exitDy=0;exitPerimeter=0;entryDx=0;entryDy=0;" parent="1" source="e3GAquj90kr0tm5V7kAf-12" target="RYgZhdgakqxeQmth26HK-23" edge="1">
          <mxGeometry relative="1" as="geometry">
            <Array as="points">
              <mxPoint x="920" y="90" />
            </Array>
            <mxPoint x="982.5" y="-355" as="sourcePoint" />
            <mxPoint x="1161.5" y="320" as="targetPoint" />
          </mxGeometry>
        </mxCell>
        <mxCell id="e3GAquj90kr0tm5V7kAf-3" value="" style="curved=1;startArrow=ERmandOne;startSize=10;;endArrow=ERzeroToMany;endSize=10;;exitX=0.393;exitY=1;rounded=0;exitDx=0;exitDy=0;exitPerimeter=0;entryX=0.5;entryY=0.125;entryDx=0;entryDy=0;entryPerimeter=0;" edge="1" parent="1" source="RYgZhdgakqxeQmth26HK-9" target="e3GAquj90kr0tm5V7kAf-1">
          <mxGeometry x="-0.4316" relative="1" as="geometry">
            <Array as="points">
              <mxPoint x="320" y="-140" />
            </Array>
            <mxPoint x="370" y="-240" as="sourcePoint" />
            <mxPoint x="160" y="-90" as="targetPoint" />
            <mxPoint x="-1" as="offset" />
          </mxGeometry>
        </mxCell>
        <mxCell id="e3GAquj90kr0tm5V7kAf-1" value="&lt;font style=&quot;font-size: 15px;&quot;&gt;places&lt;/font&gt;" style="shape=rhombus;perimeter=rhombusPerimeter;whiteSpace=wrap;html=1;align=center;fillColor=#fff2cc;strokeColor=#d6b656;rounded=0;" vertex="1" parent="1">
          <mxGeometry x="160" y="-70" width="70" height="42.5" as="geometry" />
        </mxCell>
        <mxCell id="e3GAquj90kr0tm5V7kAf-5" value="" style="curved=1;startArrow=ERmandOne;startSize=10;;endArrow=ERzeroToMany;endSize=10;;exitX=0.426;exitY=1.007;entryX=0.5;entryY=0;rounded=0;exitDx=0;exitDy=0;exitPerimeter=0;entryDx=0;entryDy=0;" edge="1" parent="1" source="RYgZhdgakqxeQmth26HK-19" target="e3GAquj90kr0tm5V7kAf-4">
          <mxGeometry relative="1" as="geometry">
            <Array as="points" />
            <mxPoint x="10" y="-170" as="sourcePoint" />
            <mxPoint x="-103" y="88" as="targetPoint" />
          </mxGeometry>
        </mxCell>
        <mxCell id="e3GAquj90kr0tm5V7kAf-4" value="&lt;font style=&quot;font-size: 14px;&quot;&gt;&lt;i style=&quot;&quot;&gt;delivers&lt;/i&gt;&lt;/font&gt;" style="shape=rhombus;perimeter=rhombusPerimeter;whiteSpace=wrap;html=1;align=center;fillColor=#fff2cc;strokeColor=#d6b656;rounded=0;" vertex="1" parent="1">
          <mxGeometry x="-140" y="-50" width="90" height="40" as="geometry" />
        </mxCell>
        <mxCell id="e3GAquj90kr0tm5V7kAf-7" value="" style="curved=1;startArrow=ERmandOne;startSize=10;;endArrow=ERoneToMany;endSize=10;;exitX=1;exitY=1;entryX=0.012;entryY=0.504;rounded=0;exitDx=0;exitDy=0;entryDx=0;entryDy=0;entryPerimeter=0;" edge="1" parent="1" source="RYgZhdgakqxeQmth26HK-17" target="e3GAquj90kr0tm5V7kAf-6">
          <mxGeometry x="0.0948" y="32" relative="1" as="geometry">
            <Array as="points">
              <mxPoint x="10" y="330" />
            </Array>
            <mxPoint x="-54" y="128" as="sourcePoint" />
            <mxPoint x="320" y="380" as="targetPoint" />
            <mxPoint y="-1" as="offset" />
          </mxGeometry>
        </mxCell>
        <mxCell id="e3GAquj90kr0tm5V7kAf-6" value="contains" style="shape=rhombus;perimeter=rhombusPerimeter;whiteSpace=wrap;html=1;align=center;fontSize=14;fillColor=#fff2cc;strokeColor=#d6b656;rounded=0;" vertex="1" parent="1">
          <mxGeometry x="100" y="290" width="70" height="50" as="geometry" />
        </mxCell>
        <mxCell id="e3GAquj90kr0tm5V7kAf-9" value="" style="curved=1;startArrow=ERmandOne;startSize=10;;endArrow=ERmandOne;endSize=10;;exitX=0;exitY=1;entryX=0.464;entryY=0.003;rounded=0;exitDx=0;exitDy=0;entryDx=0;entryDy=0;entryPerimeter=0;" edge="1" parent="1" target="e3GAquj90kr0tm5V7kAf-8">
          <mxGeometry relative="1" as="geometry">
            <Array as="points" />
            <mxPoint x="-141.24999999999977" y="127.5" as="sourcePoint" />
            <mxPoint x="-198.74999999999977" y="420" as="targetPoint" />
          </mxGeometry>
        </mxCell>
        <mxCell id="e3GAquj90kr0tm5V7kAf-8" value="has" style="shape=rhombus;perimeter=rhombusPerimeter;whiteSpace=wrap;html=1;align=center;fillColor=#fff2cc;strokeColor=#d6b656;fontSize=14;rounded=0;" vertex="1" parent="1">
          <mxGeometry x="-247.5" y="259.5" width="67.5" height="33" as="geometry" />
        </mxCell>
        <mxCell id="e3GAquj90kr0tm5V7kAf-11" value="" style="curved=1;startArrow=ERmandOne;startSize=10;;endArrow=ERzeroToMany;endSize=10;;exitX=0.5;exitY=1;entryX=1.002;entryY=0.59;rounded=0;entryDx=0;entryDy=0;exitDx=0;exitDy=0;entryPerimeter=0;" edge="1" parent="1" source="RYgZhdgakqxeQmth26HK-22" target="e3GAquj90kr0tm5V7kAf-10">
          <mxGeometry x="0.1337" y="-57" relative="1" as="geometry">
            <Array as="points">
              <mxPoint x="1130" y="230" />
            </Array>
            <mxPoint x="1178" y="123" as="sourcePoint" />
            <mxPoint x="830" y="303" as="targetPoint" />
            <mxPoint as="offset" />
          </mxGeometry>
        </mxCell>
        <mxCell id="e3GAquj90kr0tm5V7kAf-10" value="has" style="shape=rhombus;perimeter=rhombusPerimeter;whiteSpace=wrap;html=1;align=center;fontSize=14;fillColor=#fff2cc;strokeColor=#d6b656;rounded=0;" vertex="1" parent="1">
          <mxGeometry x="1010" y="270" width="72.5" height="33" as="geometry" />
        </mxCell>
        <mxCell id="e3GAquj90kr0tm5V7kAf-15" value="" style="curved=1;startArrow=ERmandOne;startSize=10;;endArrow=ERzeroToMany;endSize=10;;exitX=0.914;exitY=0.978;entryX=0.5;entryY=0;rounded=0;exitDx=0;exitDy=0;exitPerimeter=0;entryDx=0;entryDy=0;" edge="1" parent="1" source="RYgZhdgakqxeQmth26HK-13" target="e3GAquj90kr0tm5V7kAf-12">
          <mxGeometry relative="1" as="geometry">
            <Array as="points">
              <mxPoint x="1000" y="-286" />
              <mxPoint x="1060" y="-270" />
              <mxPoint x="1110" y="-230" />
              <mxPoint x="1070" y="-220" />
              <mxPoint x="1100" y="-190" />
            </Array>
            <mxPoint x="884" y="-286" as="sourcePoint" />
            <mxPoint x="755" y="303" as="targetPoint" />
          </mxGeometry>
        </mxCell>
        <mxCell id="e3GAquj90kr0tm5V7kAf-12" value="eligible_restaurant" style="shape=rhombus;perimeter=rhombusPerimeter;whiteSpace=wrap;html=1;align=center;fillColor=#fff2cc;strokeColor=#d6b656;fontSize=14;rounded=0;" vertex="1" parent="1">
          <mxGeometry x="1047.5" y="-150" width="155" height="73" as="geometry" />
        </mxCell>
        <mxCell id="e3GAquj90kr0tm5V7kAf-18" value="" style="curved=1;startArrow=ERmandOne;startSize=10;;endArrow=ERzeroToMany;endSize=10;;entryX=0.515;entryY=-0.016;rounded=0;entryDx=0;entryDy=0;exitX=0.369;exitY=1.089;exitDx=0;exitDy=0;exitPerimeter=0;entryPerimeter=0;" edge="1" parent="1" source="RYgZhdgakqxeQmth26HK-13" target="e3GAquj90kr0tm5V7kAf-17">
          <mxGeometry relative="1" as="geometry">
            <Array as="points">
              <mxPoint x="830" y="-200" />
              <mxPoint x="890" y="-160" />
              <mxPoint x="950" y="-120" />
              <mxPoint x="990" y="-150" />
            </Array>
            <mxPoint x="813" y="-280" as="sourcePoint" />
            <mxPoint x="805" y="15" as="targetPoint" />
          </mxGeometry>
        </mxCell>
        <mxCell id="e3GAquj90kr0tm5V7kAf-17" value="receives" style="shape=rhombus;perimeter=rhombusPerimeter;whiteSpace=wrap;html=1;align=center;fontSize=14;fillColor=#fff2cc;strokeColor=#d6b656;rounded=0;" vertex="1" parent="1">
          <mxGeometry x="950" y="-100" width="95" height="50" as="geometry" />
        </mxCell>
        <mxCell id="e3GAquj90kr0tm5V7kAf-20" value="" style="curved=1;startArrow=ERmandOne;startSize=10;;endArrow=ERzeroToMany;endSize=10;;exitX=0.106;exitY=0.978;entryX=0.478;entryY=0.082;rounded=0;entryDx=0;entryDy=0;entryPerimeter=0;exitDx=0;exitDy=0;exitPerimeter=0;" edge="1" parent="1" source="RYgZhdgakqxeQmth26HK-13" target="e3GAquj90kr0tm5V7kAf-19">
          <mxGeometry relative="1" as="geometry">
            <Array as="points">
              <mxPoint x="680" y="-160" />
              <mxPoint x="630" y="-140" />
              <mxPoint x="560" y="-140" />
            </Array>
            <mxPoint x="779" y="-286" as="sourcePoint" />
            <mxPoint x="310" y="107" as="targetPoint" />
          </mxGeometry>
        </mxCell>
        <mxCell id="e3GAquj90kr0tm5V7kAf-19" value="offers" style="shape=rhombus;perimeter=rhombusPerimeter;whiteSpace=wrap;html=1;align=center;fillColor=#fff2cc;strokeColor=#d6b656;fontSize=14;rounded=0;" vertex="1" parent="1">
          <mxGeometry x="385" y="-70" width="90" height="40" as="geometry" />
        </mxCell>
        <mxCell id="e3GAquj90kr0tm5V7kAf-22" value="" style="curved=1;startArrow=ERmandOne;startSize=10;;endArrow=ERzeroToMany;endSize=10;;exitX=1;exitY=0.616;entryX=0.5;entryY=0;rounded=0;exitDx=0;exitDy=0;entryDx=0;entryDy=0;entryPerimeter=0;exitPerimeter=0;" edge="1" parent="1" source="RYgZhdgakqxeQmth26HK-9" target="e3GAquj90kr0tm5V7kAf-21">
          <mxGeometry relative="1" as="geometry">
            <Array as="points">
              <mxPoint x="580" y="-270" />
            </Array>
            <mxPoint x="455" y="-240" as="sourcePoint" />
            <mxPoint x="670" y="15" as="targetPoint" />
          </mxGeometry>
        </mxCell>
        <mxCell id="e3GAquj90kr0tm5V7kAf-21" value="writes" style="shape=rhombus;perimeter=rhombusPerimeter;whiteSpace=wrap;html=1;align=center;fontSize=14;fillColor=#fff2cc;strokeColor=#d6b656;rounded=0;" vertex="1" parent="1">
          <mxGeometry x="610" y="-210" width="80" height="40" as="geometry" />
        </mxCell>
        <mxCell id="e3GAquj90kr0tm5V7kAf-24" value="" style="curved=1;startArrow=ERmandOne;startSize=10;;endArrow=ERoneToMany;endSize=10;;exitX=1;exitY=1;entryX=0.5;entryY=0;rounded=0;exitDx=0;exitDy=0;entryDx=0;entryDy=0;" edge="1" parent="1" source="RYgZhdgakqxeQmth26HK-16" target="e3GAquj90kr0tm5V7kAf-23">
          <mxGeometry relative="1" as="geometry">
            <Array as="points" />
            <mxPoint x="365" y="143" as="sourcePoint" />
            <mxPoint x="385" y="380" as="targetPoint" />
          </mxGeometry>
        </mxCell>
        <mxCell id="e3GAquj90kr0tm5V7kAf-23" value="appears_in" style="shape=rhombus;perimeter=rhombusPerimeter;whiteSpace=wrap;html=1;align=center;fillColor=#fff2cc;strokeColor=#d6b656;fontSize=14;rounded=0;" vertex="1" parent="1">
          <mxGeometry x="370" y="250" width="75" height="42.5" as="geometry" />
        </mxCell>
        <mxCell id="e3GAquj90kr0tm5V7kAf-26" value="" style="curved=1;startArrow=ERmandOne;startSize=10;;endArrow=ERzeroToMany;endSize=10;;exitX=1;exitY=0;entryX=0.473;entryY=0.027;rounded=0;exitDx=0;exitDy=0;entryDx=0;entryDy=0;entryPerimeter=0;" edge="1" parent="1" target="e3GAquj90kr0tm5V7kAf-25">
          <mxGeometry x="0.0412" y="-12" relative="1" as="geometry">
            <Array as="points">
              <mxPoint x="510" y="60" />
            </Array>
            <mxPoint x="365" y="105" as="sourcePoint" />
            <mxPoint x="680" y="303" as="targetPoint" />
            <mxPoint as="offset" />
          </mxGeometry>
        </mxCell>
        <mxCell id="e3GAquj90kr0tm5V7kAf-25" value="eligible_item" style="shape=rhombus;perimeter=rhombusPerimeter;whiteSpace=wrap;html=1;align=center;fontSize=14;fillColor=#fff2cc;strokeColor=#d6b656;rounded=0;" vertex="1" parent="1">
          <mxGeometry x="470" y="198" width="120" height="60" as="geometry" />
        </mxCell>
      </root>
    </mxGraphModel>
  </diagram>
</mxfile>
